<svg width="16.000000" height="16.000000" viewBox="0 0 16 16" fill="none" xmlns="http://www.w3.org/2000/svg" xmlns:xlink="http://www.w3.org/1999/xlink">
	<desc>
			Created with Pixso.
	</desc>
	<defs/>
	<path id="Vector" d="M11.4351 10.0629L10.7124 10.0629L10.4561 9.81592C11.3525 8.77307 11.8926 7.41907 11.8926 5.94629C11.8926 2.66211 9.23047 0 5.94629 0C2.66211 0 0 2.66211 0 5.94629C0 9.23047 2.66211 11.8925 5.94629 11.8925C7.41895 11.8925 8.77295 11.3528 9.81592 10.4563L10.063 10.7124L10.063 11.4351L14.6367 16L16 14.637L11.4351 10.0629ZM5.94629 10.0629C3.66846 10.0629 1.82959 8.22412 1.82959 5.94629C1.82959 3.66833 3.66846 1.82959 5.94629 1.82959C8.22412 1.82959 10.063 3.66833 10.063 5.94629C10.063 8.22412 8.22412 10.0629 5.94629 10.0629Z" fill="#FFFFFF" fill-opacity="1.000000" fill-rule="nonzero"/>
</svg>
