<svg width="25.000000" height="25.000000" viewBox="0 0 25 25" fill="none" xmlns="http://www.w3.org/2000/svg" xmlns:xlink="http://www.w3.org/1999/xlink">
	<desc>
			Created with Pixso.
	</desc>
	<defs>
		<clipPath id="clip523_2882">
			<rect id="favorite_border" width="25.000000" height="25.000000" fill="white" fill-opacity="0"/>
		</clipPath>
	</defs>
	<g clip-path="url(#clip523_2882)">
		<path id="Vector" d="M17.1875 3.125C15.375 3.125 13.6353 3.96875 12.5 5.30206C11.3645 3.96875 9.625 3.125 7.8125 3.125C4.604 3.125 2.08325 5.64581 2.08325 8.85419C2.08325 12.7917 5.625 16 10.9895 20.875L12.5 22.2396L14.0103 20.8646C19.375 16 22.9165 12.7917 22.9165 8.85419C22.9165 5.64581 20.3958 3.125 17.1875 3.125ZM12.604 19.3229L12.5 19.4271L12.3958 19.3229C7.4375 14.8333 4.1665 11.8646 4.1665 8.85419C4.1665 6.77081 5.729 5.20831 7.8125 5.20831C9.4165 5.20831 10.979 6.23956 11.5312 7.66669L13.479 7.66669C14.0208 6.23956 15.5833 5.20831 17.1875 5.20831C19.2708 5.20831 20.8333 6.77081 20.8333 8.85419C20.8333 11.8646 17.5625 14.8333 12.604 19.3229Z" fill="#DCCA87" fill-opacity="1.000000" fill-rule="nonzero"/>
	</g>
</svg>
